<?xml version="1.0" encoding="UTF-8" standalone="no"?>
<svg width="50px" height="71px" viewBox="0 0 50 71" version="1.1" xmlns="http://www.w3.org/2000/svg" xmlns:xlink="http://www.w3.org/1999/xlink" xmlns:sketch="http://www.bohemiancoding.com/sketch/ns">
    <!-- Generator: Sketch 3.3 (11970) - http://www.bohemiancoding.com/sketch -->
    <title>icon_female_selected</title>
    <desc>Created with Sketch.</desc>
    <defs></defs>
    <g id="Page-1" stroke="none" stroke-width="1" fill="none" fill-rule="evenodd" sketch:type="MSPage">
        <g id="elements_icons" sketch:type="MSArtboardGroup" transform="translate(-116.000000, -1769.000000)" fill="#FFFFFF">
            <path d="M139.108065,1818.76679 L139.108065,1827.32395 L134.674635,1827.32395 C133.635188,1827.32395 132.792549,1828.2481 132.792549,1829.38292 C132.792549,1830.52006 133.640109,1831.44189 134.674635,1831.44189 L139.108065,1831.44189 L139.108065,1837.67036 C139.108065,1838.7113 139.946065,1839.55516 140.996026,1839.55516 C142.038718,1839.55516 142.883987,1838.71047 142.883987,1837.67036 L142.883987,1831.44189 L142.883987,1831.44189 L147.317417,1831.44189 C148.356865,1831.44189 149.199504,1830.51775 149.199504,1829.38292 C149.199504,1828.24578 148.351944,1827.32395 147.317417,1827.32395 L142.883987,1827.32395 L142.883987,1818.79759 C155.629998,1817.92894 165.697564,1807.28778 165.697564,1794.29236 C165.697564,1780.72881 154.730493,1769.72986 141.197564,1769.72986 C127.664635,1769.72986 116.697564,1780.72881 116.697564,1794.29236 C116.697564,1807.15048 126.553528,1817.70383 139.108065,1818.76679 Z M141.197564,1812.85486 C130.982249,1812.85486 122.697564,1804.54609 122.697564,1794.29236 C122.697564,1784.03863 130.982249,1775.72986 141.197564,1775.72986 C151.412879,1775.72986 159.697564,1784.03863 159.697564,1794.29236 C159.697564,1804.54609 151.412879,1812.85486 141.197564,1812.85486 L141.197564,1812.85486 Z" id="icon_female_selected" sketch:type="MSShapeGroup"></path>
        </g>
    </g>
</svg>