<?xml version="1.0" encoding="UTF-8" standalone="no"?>
<svg width="53px" height="52px" viewBox="0 0 53 52" version="1.1" xmlns="http://www.w3.org/2000/svg" xmlns:xlink="http://www.w3.org/1999/xlink" xmlns:sketch="http://www.bohemiancoding.com/sketch/ns">
    <!-- Generator: Sketch 3.3 (11970) - http://www.bohemiancoding.com/sketch -->
    <title>icon_male_unselected</title>
    <desc>Created with Sketch.</desc>
    <defs></defs>
    <g id="Page-1" stroke="none" stroke-width="1" fill="none" fill-rule="evenodd" sketch:type="MSPage">
        <g id="elements_icons" sketch:type="MSArtboardGroup" transform="translate(-192.000000, -1866.000000)" fill="#979797">
            <path d="M229.449124,1879.59998 L239.23519,1869.81391 L232.561044,1869.81391 C231.706781,1869.81391 231.023815,1869.12352 231.023815,1868.27189 C231.023815,1867.41431 231.712056,1866.72986 232.561044,1866.72986 L242.887273,1866.72986 C243.331832,1866.72986 243.73,1866.91683 244.009668,1867.21619 C244.312025,1867.4969 244.5,1867.89767 244.5,1868.34259 L244.5,1878.66881 C244.5,1879.52308 243.809611,1880.20604 242.957973,1880.20604 C242.100397,1880.20604 241.415945,1879.5178 241.415945,1878.66881 L241.415945,1871.99467 L231.57784,1881.83277 C234.705425,1885.61233 236.584961,1890.46235 236.584961,1895.75137 C236.584961,1907.81667 226.804105,1917.59752 214.738807,1917.59752 C202.67351,1917.59752 192.892654,1907.81667 192.892654,1895.75137 C192.892654,1883.68607 202.67351,1873.90522 214.738807,1873.90522 C220.404848,1873.90522 225.567083,1876.06227 229.449124,1879.59998 L229.449124,1879.59998 Z M214.738807,1911.59752 C205.987218,1911.59752 198.892654,1904.50296 198.892654,1895.75137 C198.892654,1886.99978 205.987218,1879.90522 214.738807,1879.90522 C223.490397,1879.90522 230.584961,1886.99978 230.584961,1895.75137 C230.584961,1904.50296 223.490397,1911.59752 214.738807,1911.59752 Z" id="icon_male_unselected" sketch:type="MSShapeGroup"></path>
        </g>
    </g>
</svg>