<?xml version="1.0" encoding="UTF-8" standalone="no"?>
<svg width="58px" height="77px" viewBox="0 0 58 77" version="1.1" xmlns="http://www.w3.org/2000/svg" xmlns:xlink="http://www.w3.org/1999/xlink" xmlns:sketch="http://www.bohemiancoding.com/sketch/ns">
    <!-- Generator: Sketch 3.3 (11970) - http://www.bohemiancoding.com/sketch -->
    <title>icon_other_selected</title>
    <desc>Created with Sketch.</desc>
    <defs></defs>
    <g id="Page-1" stroke="none" stroke-width="1" fill="none" fill-rule="evenodd" sketch:type="MSPage">
        <g id="elements_icons" sketch:type="MSArtboardGroup" transform="translate(-41.000000, -1763.000000)" fill="#FFFFFF">
            <path d="M63.4105014,1818.76679 L63.4105014,1827.32395 L58.9770711,1827.32395 C57.9376235,1827.32395 57.0949848,1828.2481 57.0949848,1829.38292 C57.0949848,1830.52006 57.9425449,1831.44189 58.9770711,1831.44189 L63.4105014,1831.44189 L63.4105014,1837.67036 C63.4105014,1838.7113 64.2485008,1839.55516 65.2984622,1839.55516 C66.3411542,1839.55516 67.186423,1838.71047 67.186423,1837.67036 L67.186423,1831.44189 L67.186423,1831.44189 L71.6198533,1831.44189 C72.6593009,1831.44189 73.5019397,1830.51775 73.5019397,1829.38292 C73.5019397,1828.24578 72.6543795,1827.32395 71.6198533,1827.32395 L67.186423,1827.32395 L67.186423,1818.79759 C79.9324343,1817.92894 90,1807.28778 90,1794.29236 C90,1788.59825 88.0671635,1783.35613 84.8230728,1779.19003 L95.0184323,1768.99467 L95.0184323,1775.66881 C95.0184323,1776.5178 95.7028839,1777.20604 96.5604595,1777.20604 C97.4120977,1777.20604 98.1024868,1776.52308 98.1024868,1775.66881 L98.1024868,1765.34259 C98.1024868,1764.89767 97.9145118,1764.4969 97.6121545,1764.21619 C97.332487,1763.91683 96.9343185,1763.72986 96.4897597,1763.72986 L86.1635312,1763.72986 C85.3145429,1763.72986 84.626302,1764.41431 84.626302,1765.27189 C84.626302,1766.12352 85.3092673,1766.81391 86.1635312,1766.81391 L92.8376764,1766.81391 L82.7758262,1776.87576 C78.3463675,1772.45939 72.2415593,1769.72986 65.5,1769.72986 C51.9670711,1769.72986 41,1780.72881 41,1794.29236 C41,1807.15048 50.8559637,1817.70383 63.4105014,1818.76679 Z M65.5,1812.85486 C55.2846847,1812.85486 47,1804.54609 47,1794.29236 C47,1784.03863 55.2846847,1775.72986 65.5,1775.72986 C75.7153153,1775.72986 84,1784.03863 84,1794.29236 C84,1804.54609 75.7153153,1812.85486 65.5,1812.85486 L65.5,1812.85486 Z" id="icon_other_selected" sketch:type="MSShapeGroup"></path>
        </g>
    </g>
</svg>