<?xml version="1.0" encoding="UTF-8" standalone="no"?>
<svg width="52px" height="52px" viewBox="0 0 52 52" version="1.1" xmlns="http://www.w3.org/2000/svg" xmlns:xlink="http://www.w3.org/1999/xlink" xmlns:sketch="http://www.bohemiancoding.com/sketch/ns">
    <!-- Generator: Sketch 3.3 (11970) - http://www.bohemiancoding.com/sketch -->
    <title>icon_male_selected</title>
    <desc>Created with Sketch.</desc>
    <defs></defs>
    <g id="Page-1" stroke="none" stroke-width="1" fill="none" fill-rule="evenodd" sketch:type="MSPage">
        <g id="elements_icons" sketch:type="MSArtboardGroup" transform="translate(-195.000000, -1763.000000)" fill="#FFFFFF">
            <path d="M231.556471,1776.59998 L241.342536,1766.81391 L234.668391,1766.81391 C233.814127,1766.81391 233.131162,1766.12352 233.131162,1765.27189 C233.131162,1764.41431 233.819403,1763.72986 234.668391,1763.72986 L244.994619,1763.72986 C245.439178,1763.72986 245.837347,1763.91683 246.117014,1764.21619 C246.419371,1764.4969 246.607346,1764.89767 246.607346,1765.34259 L246.607346,1775.66881 C246.607346,1776.52308 245.916957,1777.20604 245.065319,1777.20604 C244.207744,1777.20604 243.523292,1776.5178 243.523292,1775.66881 L243.523292,1768.99467 L233.685186,1778.83277 C236.812772,1782.61233 238.692308,1787.46235 238.692308,1792.75137 C238.692308,1804.81667 228.911451,1814.59752 216.846154,1814.59752 C204.780856,1814.59752 195,1804.81667 195,1792.75137 C195,1780.68607 204.780856,1770.90522 216.846154,1770.90522 C222.512195,1770.90522 227.67443,1773.06227 231.556471,1776.59998 L231.556471,1776.59998 Z M216.846154,1808.59752 C208.094565,1808.59752 201,1801.50296 201,1792.75137 C201,1783.99978 208.094565,1776.90522 216.846154,1776.90522 C225.597743,1776.90522 232.692308,1783.99978 232.692308,1792.75137 C232.692308,1801.50296 225.597743,1808.59752 216.846154,1808.59752 Z" id="icon_male_selected" sketch:type="MSShapeGroup"></path>
        </g>
    </g>
</svg>